<?xml version="1.0" standalone="no"?>
<!DOCTYPE svg PUBLIC "-//W3C//DTD SVG 20010904//EN"
 "http://www.w3.org/TR/2001/REC-SVG-20010904/DTD/svg10.dtd">
<svg version="1.0" xmlns="http://www.w3.org/2000/svg"
 width="1200.000000pt" height="1200.000000pt" viewBox="0 0 1200.000000 1200.000000"
 preserveAspectRatio="xMidYMid meet">
<metadata>
Created by potrace 1.11, written by Peter Selinger 2001-2013
</metadata>
<g transform="translate(0.000000,1200.000000) scale(0.100000,-0.100000)"
fill="#000000" stroke="none">
<path d="M0 11000 l0 -1000 29 0 c28 0 30 -3 33 -42 3 -37 6 -43 23 -40 11 2
27 3 35 2 8 0 25 0 38 0 12 0 22 -5 22 -11 0 -6 -7 -9 -15 -5 -10 4 -15 -1
-15 -14 0 -26 47 -28 52 -3 3 16 4 16 20 0 9 -9 21 -17 27 -17 6 0 11 -6 11
-14 0 -8 7 -17 16 -20 13 -5 14 -9 4 -21 -10 -12 -9 -15 9 -15 11 0 21 6 21
13 0 6 6 3 13 -8 13 -23 14 -26 16 -62 1 -22 3 -25 11 -13 8 13 10 12 10 -2 0
-10 7 -18 15 -18 8 0 15 -7 15 -15 0 -8 5 -15 10 -15 6 0 19 -20 30 -44 10
-24 24 -46 32 -48 11 -4 11 -9 -1 -30 -12 -24 -11 -29 7 -48 13 -14 19 -31 16
-46 -2 -13 0 -24 6 -24 5 0 9 -3 8 -7 -3 -15 15 -88 28 -115 10 -20 11 -34 4
-54 -11 -28 -5 -64 11 -64 5 0 9 -9 9 -20 0 -11 -4 -20 -10 -20 -12 0 -13 -37
-1 -44 5 -4 7 3 4 14 -3 13 0 20 9 20 23 0 48 -38 48 -75 0 -19 5 -35 10 -35
6 0 10 5 10 11 0 20 90 -70 116 -117 6 -10 20 -23 32 -29 27 -12 28 -22 5 -28
-17 -4 -17 -5 0 -6 22 -1 22 -17 0 -29 -24 -14 -25 -119 0 -126 9 -2 17 -13
17 -24 0 -11 3 -27 6 -36 4 -11 1 -16 -10 -16 -9 0 -16 -3 -16 -7 0 -5 -14
-23 -30 -42 -17 -18 -30 -42 -30 -52 0 -9 -6 -19 -13 -22 -6 -2 -12 -17 -12
-33 0 -18 -5 -28 -12 -27 -8 2 -13 -8 -13 -27 0 -16 -7 -33 -16 -38 -9 -5 -15
-12 -15 -15 5 -34 -1 -57 -14 -57 -10 0 -15 -10 -15 -29 0 -16 -7 -37 -16 -45
-8 -9 -13 -20 -9 -26 5 -8 7 -83 3 -132 -1 -9 -7 -19 -15 -22 -18 -7 -17 -46
2 -66 13 -14 14 -22 4 -44 -7 -14 -16 -26 -20 -26 -5 0 -6 -6 -3 -14 3 -8 1
-17 -5 -21 -6 -3 -11 -15 -11 -26 0 -11 4 -17 10 -14 5 3 10 1 10 -4 0 -6 -7
-11 -15 -11 -14 0 -20 -40 -18 -107 1 -7 -3 -13 -8 -13 -5 0 -9 -9 -9 -20 0
-22 -19 -28 -21 -7 -1 6 -5 -10 -9 -38 -4 -27 -3 -58 2 -67 8 -16 4 -18 -31
-18 l-40 0 4 -41 c3 -23 7 -44 9 -46 7 -7 -33 -43 -48 -43 -10 0 -15 -22 -20
-80 -7 -75 -9 -80 -31 -80 -24 0 -35 -17 -35 -56 0 -13 -4 -24 -8 -24 -4 0 -8
-9 -8 -20 0 -11 4 -20 8 -20 4 0 8 -4 8 -10 0 -5 -7 -10 -16 -10 -10 0 -14 -5
-10 -15 5 -13 -24 -55 -38 -55 -10 0 -12 40 -2 44 13 5 -41 9 -96 6 -26 -1
-38 3 -38 12 0 10 -3 9 -10 -2 -8 -13 -11 -13 -19 -1 -5 7 -14 10 -20 7 -6 -4
-11 -4 -10 1 3 18 -2 33 -11 33 -7 0 -10 -1202 -10 -3585 l0 -3585 6000 0
6000 0 0 3676 0 3675 -22 -6 c-13 -4 -28 -13 -33 -20 -16 -19 -72 -25 -60 -6
3 6 -4 9 -15 8 -10 -1 -22 -7 -24 -13 -3 -7 -19 -11 -38 -10 -18 1 -39 -4 -47
-11 -7 -8 -20 -12 -27 -9 -13 5 -18 -10 -15 -39 0 -6 -25 -16 -57 -23 -31 -7
-69 -15 -84 -18 -16 -4 -28 -10 -28 -14 0 -5 -9 -12 -20 -15 -11 -3 -20 -15
-20 -25 0 -10 -8 -21 -19 -25 -10 -3 -27 -15 -37 -27 -12 -14 -14 -19 -4 -13
12 7 13 6 2 -6 -11 -12 -14 -12 -22 1 -8 12 -18 6 -54 -34 -33 -36 -49 -47
-64 -44 -20 6 -67 -34 -55 -46 3 -3 -6 -10 -21 -15 -14 -6 -26 -17 -26 -25 0
-8 -6 -19 -14 -23 -20 -11 -83 -135 -107 -210 -17 -51 -18 -69 -10 -100 6 -21
11 -53 11 -70 0 -18 4 -33 9 -33 6 0 4 -12 -4 -27 -9 -17 -11 -31 -5 -38 7 -8
5 -12 -5 -12 -8 0 -15 6 -15 13 0 7 -12 13 -27 13 -55 0 -68 7 -71 37 -4 33
-20 56 -36 51 -14 -5 -36 17 -36 37 0 8 -6 21 -13 28 -22 23 -61 109 -60 131
1 11 -7 33 -17 48 -11 15 -20 32 -20 39 0 6 -11 30 -24 53 -12 23 -30 69 -38
102 -16 63 -66 156 -102 191 -11 11 -28 30 -36 42 -8 12 -20 22 -27 22 -7 0
-23 10 -34 21 -15 15 -33 21 -59 21 -47 -1 -170 68 -178 100 -8 27 -16 37 -33
41 -10 3 -22 1 -25 -4 -9 -15 -24 -10 -24 9 0 20 -42 48 -58 38 -5 -3 -12 3
-15 14 -5 18 -51 46 -70 42 -4 -1 -12 9 -17 22 -5 13 -14 27 -20 31 -5 3 -8
11 -5 16 4 5 -4 13 -17 18 -13 5 -38 25 -56 45 -18 20 -37 34 -43 31 -5 -4
-12 1 -15 9 -3 9 -12 16 -19 16 -7 0 -18 7 -25 15 -7 8 -17 12 -22 9 -5 -3
-18 2 -28 11 -17 16 -21 14 -74 -39 -36 -35 -62 -53 -71 -49 -9 3 -23 -1 -32
-8 -19 -16 -180 -23 -189 -8 -8 13 -58 11 -72 -3 -9 -9 -12 -9 -12 0 0 7 -24
11 -73 11 -63 0 -78 -4 -102 -25 -15 -13 -32 -24 -37 -24 -4 0 -8 -7 -8 -15 0
-9 -9 -15 -25 -15 -14 0 -28 -7 -31 -15 -7 -16 -44 -21 -44 -6 0 16 -33 18
-67 4 -36 -15 -83 -17 -83 -5 0 5 -7 9 -14 9 -8 0 -14 -3 -13 -6 1 -3 -5 -15
-13 -27 -18 -24 -50 -39 -50 -22 0 6 -3 8 -7 5 -3 -4 -12 1 -20 11 -13 16 -14
15 -9 -7 3 -13 0 -33 -6 -44 -10 -20 -11 -20 -24 -2 -12 16 -14 16 -14 3 0 -9
-9 -20 -20 -23 -11 -4 -28 -21 -37 -38 -8 -18 -19 -34 -22 -37 -9 -7 -33 -71
-38 -103 -5 -27 17 -124 38 -172 16 -35 39 -119 39 -142 0 -25 42 -160 60
-193 9 -17 8 -27 -4 -45 -20 -30 -20 -62 -1 -95 16 -28 31 -59 51 -107 13 -30
10 -63 -6 -63 -10 0 -75 100 -85 130 -4 14 -20 36 -35 50 -14 14 -32 45 -40
70 -9 33 -23 52 -51 72 -39 28 -49 57 -30 87 13 20 -26 69 -129 164 -49 45
-95 149 -79 178 8 16 7 16 -21 2 -17 -8 -30 -19 -30 -25 0 -5 -6 -8 -12 -5 -7
2 -13 13 -13 25 0 12 -4 23 -9 24 -18 6 -86 76 -86 89 0 31 61 45 80 18 3 -3
20 -10 38 -14 28 -6 32 -4 32 13 0 11 -20 40 -44 65 -34 33 -43 50 -39 66 5
21 43 31 43 11 0 -5 6 -10 13 -10 7 0 23 -11 35 -25 23 -27 30 -29 49 -17 8 5
10 20 6 42 -3 19 -5 59 -4 88 1 47 -2 56 -28 78 -16 13 -31 35 -33 47 -2 13
-10 22 -21 22 -21 0 -47 30 -47 54 0 8 -7 22 -16 32 -15 17 -15 20 5 45 26 34
26 48 0 83 -12 16 -19 34 -15 39 3 5 -14 19 -39 31 -35 17 -45 26 -45 45 0 14
-5 28 -10 31 -6 4 -8 11 -4 16 3 5 10 7 15 4 14 -10 11 18 -6 42 -9 12 -31 25
-50 29 -37 7 -66 43 -79 97 -4 18 -18 33 -41 44 -19 9 -35 22 -35 27 0 6 -9
17 -20 24 -11 7 -20 18 -20 25 -1 23 -62 80 -117 109 -13 6 -23 17 -23 23 0
18 -59 59 -107 74 -46 15 -83 17 -125 6 -42 -11 -78 2 -91 33 -10 22 -20 28
-50 31 -21 1 -54 9 -74 17 -19 9 -36 14 -37 12 -1 -2 -7 -15 -14 -30 -13 -32
-33 -36 -57 -12 -25 25 -14 47 27 57 25 6 38 15 42 31 3 12 17 28 31 34 32 15
27 42 -15 86 -34 34 -69 31 -90 -9 -12 -22 -20 -25 -49 -23 -34 3 -36 5 -34
37 2 45 -18 63 -81 73 -106 18 -116 20 -126 33 -6 7 -18 11 -28 9 -11 -3 -22
6 -33 28 -12 25 -24 34 -49 38 -26 4 -36 12 -43 33 -8 26 -6 32 24 59 l33 31
-27 23 c-20 17 -35 22 -55 18 -19 -4 -32 0 -41 10 -9 10 -29 16 -57 16 -41 0
-49 -6 -45 -32 1 -11 -61 10 -80 28 -11 10 -19 14 -19 10 0 -4 -10 -1 -22 5
-18 9 -24 8 -34 -6 -11 -14 -10 -21 2 -40 19 -29 5 -39 -32 -25 -22 9 -31 7
-49 -10 -12 -11 -29 -20 -39 -20 -15 0 -17 6 -12 34 7 38 -7 56 -49 59 -14 1
-29 7 -33 13 -13 20 -53 36 -76 30 -13 -3 -28 -17 -34 -31 -8 -18 -18 -25 -30
-21 -9 3 -29 8 -44 12 -16 3 -25 10 -22 15 3 5 -7 14 -23 20 -15 5 -31 15 -34
21 -8 13 -49 19 -129 22 -47 1 -56 4 -66 25 -7 13 -17 27 -24 31 -15 9 8 60
27 60 11 0 11 5 3 20 -20 38 -207 22 -222 -19 -2 -7 -26 -7 -68 -1 -96 14
-120 13 -127 -7 -20 -57 -90 -74 -111 -28 -9 19 -9 25 1 25 6 0 -1 7 -16 15
-32 16 -59 10 -56 -14 7 -44 -36 -83 -56 -51 -19 31 -76 -8 -101 -69 -9 -22
-20 -41 -26 -41 -5 0 -7 -4 -4 -9 8 -12 -23 -25 -52 -22 -14 2 -22 -3 -22 -12
0 -8 -8 -25 -19 -38 -17 -21 -21 -22 -46 -11 -33 15 -65 7 -65 -16 0 -9 -17
-26 -38 -37 -24 -13 -38 -28 -40 -44 -3 -19 -6 -21 -13 -10 -5 9 -9 10 -9 2 0
-6 -20 -15 -46 -19 -41 -6 -45 -9 -42 -32 3 -23 8 -26 43 -26 22 -1 40 -5 40
-11 0 -18 16 -35 47 -51 28 -15 32 -15 40 0 11 20 39 22 32 2 -9 -25 39 -46
119 -52 126 -11 125 -28 -7 -118 -66 -45 -86 -50 -86 -20 0 24 -41 15 -70 -16
-20 -21 -37 -30 -60 -30 -18 0 -29 -4 -25 -10 4 -6 -9 -10 -32 -10 -32 0 -39
4 -40 21 -2 25 -35 59 -58 59 -8 0 -29 -13 -45 -28 -27 -26 -34 -28 -75 -22
-25 4 -45 3 -45 -2 0 -4 -8 -8 -17 -8 -10 0 -27 -7 -37 -15 -11 -8 -29 -12
-43 -9 -17 5 -32 -2 -59 -26 -27 -23 -44 -31 -68 -29 -42 4 -57 -7 -54 -39 3
-24 0 -27 -34 -30 -29 -2 -41 -10 -57 -35 -11 -18 -34 -43 -52 -57 -60 -47
-109 -101 -116 -128 -3 -15 -19 -39 -33 -54 -47 -47 -80 -121 -80 -182 0 -67
-7 -86 -31 -86 -10 0 -19 -6 -19 -12 0 -7 -10 -36 -22 -65 -18 -43 -19 -57
-10 -78 11 -24 12 -24 32 -8 11 10 20 26 20 36 0 23 29 34 41 16 13 -20 11
-29 -6 -29 -9 0 -20 -11 -25 -24 -7 -20 -17 -25 -52 -28 l-43 -3 -3 -57 c-2
-34 -9 -61 -17 -68 -8 -7 -15 -21 -15 -30 0 -10 -11 -27 -24 -37 -28 -20 -29
-24 -27 -110 1 -60 2 -63 25 -63 35 0 56 -10 56 -27 0 -17 31 -13 47 7 15 19
17 67 2 72 -6 2 -9 15 -7 28 l5 25 10 -25 10 -25 7 23 c4 13 15 22 27 22 18 0
21 4 23 33 1 6 18 30 38 52 41 44 47 62 21 72 -11 4 -25 -5 -46 -30 -35 -45
-47 -46 -47 -7 0 17 4 30 9 30 5 0 19 16 31 35 12 20 35 42 50 50 15 8 34 28
42 45 15 35 37 38 62 11 10 -11 24 -17 32 -14 17 6 46 58 37 66 -3 4 2 9 11
13 32 12 36 -10 12 -62 -21 -46 -28 -52 -62 -58 -70 -13 -75 -15 -64 -36 6
-11 17 -17 25 -14 8 4 26 3 40 0 29 -7 34 -45 9 -70 -18 -19 -20 -19 -43 -6
-15 8 -22 1 -46 -46 -17 -33 -38 -59 -51 -64 -27 -11 -44 -39 -44 -74 0 -35
11 -32 38 9 18 29 28 35 57 35 30 0 35 -3 35 -24 0 -14 5 -28 10 -31 16 -10
59 22 70 50 8 22 12 23 40 14 17 -6 35 -20 41 -30 5 -11 14 -17 20 -13 5 3 17
0 25 -7 12 -10 21 -6 50 22 19 18 33 38 31 44 -2 5 -23 10 -47 10 -41 0 -44 2
-52 34 -11 42 -4 49 52 51 71 3 76 2 62 -12 -19 -19 -15 -48 7 -48 11 0 26 -3
35 -6 14 -5 14 -9 2 -33 -10 -19 -11 -32 -4 -44 13 -24 3 -49 -19 -45 -12 2
-18 -3 -18 -17 0 -26 -40 -69 -250 -271 -66 -63 -85 -88 -85 -109 0 -20 -4
-26 -15 -21 -8 3 -26 0 -40 -6 -19 -8 -25 -20 -27 -52 -2 -26 -7 -40 -16 -38
-7 1 -26 -13 -42 -30 -28 -31 -41 -60 -54 -120 -4 -17 -16 -29 -35 -36 -27
-10 -58 -58 -76 -120 -3 -12 -15 -27 -26 -32 -10 -6 -19 -17 -19 -24 0 -7 -11
-23 -25 -36 -14 -13 -25 -29 -25 -35 0 -12 -54 -73 -85 -96 -20 -14 -28 -26
-70 -104 -35 -67 -49 -85 -63 -85 -9 0 -11 10 -6 35 11 58 48 142 62 137 7 -2
12 5 12 17 0 12 -5 21 -11 21 -5 0 -7 5 -4 11 4 6 19 7 35 4 36 -8 60 23 60
78 0 31 3 37 18 35 11 -2 18 4 20 19 2 12 10 27 18 33 8 7 14 24 14 38 0 20
-3 23 -12 14 -7 -7 -20 -12 -29 -12 -10 0 -19 -5 -21 -10 -2 -6 -18 -13 -37
-15 -47 -6 -63 -22 -49 -48 9 -18 4 -27 -40 -69 -46 -44 -68 -76 -136 -202
-12 -21 -33 -52 -48 -68 -25 -26 -43 -84 -50 -158 -2 -14 -9 -25 -18 -25 -8 0
-24 -18 -37 -40 -42 -75 -84 -36 -45 42 11 21 23 54 27 73 4 19 16 43 26 53
17 16 20 22 19 42 0 3 6 18 15 35 8 16 15 39 15 51 0 12 6 30 13 38 14 17 37
107 37 145 0 13 12 36 27 52 23 25 28 39 30 94 1 36 9 87 17 114 8 27 13 53
10 58 -3 5 -21 -1 -41 -13 -22 -14 -38 -18 -42 -12 -3 6 -15 13 -26 17 -11 3
-33 18 -50 33 -16 16 -34 28 -40 29 -20 2 -67 24 -81 39 -9 8 -22 15 -30 15
-7 0 -25 10 -39 22 -14 12 -34 23 -43 23 -57 4 -62 6 -68 29 -3 14 -12 27 -20
30 -8 3 -14 12 -14 19 0 8 -7 20 -15 27 -12 10 -16 9 -21 -4 -3 -9 -14 -16
-23 -16 -19 0 -54 37 -46 49 8 14 -35 21 -62 10 -18 -7 -30 -6 -40 3 -11 9
-16 9 -24 -3 -6 -10 -9 -10 -9 -1 0 14 -27 17 -32 3 -1 -4 -14 -12 -27 -16
-13 -4 -21 -3 -18 2 3 5 -9 8 -26 7 -18 -1 -38 3 -46 9 -12 10 -13 9 -7 -2 7
-10 3 -9 -15 2 -18 11 -53 15 -134 15 -144 0 -143 0 -127 10 8 5 -6 9 -35 9
-26 0 -54 -5 -62 -10 -17 -14 -41 -18 -41 -6 0 5 -5 9 -11 9 -8 0 -7 -5 2 -16
7 -9 14 -22 15 -29 3 -19 -26 -28 -32 -11 -8 21 -31 27 -59 16 -16 -6 -25 -6
-25 0 0 17 -28 11 -42 -8 -10 -14 -24 -18 -62 -16 -37 1 -57 -4 -84 -22 -19
-13 -41 -24 -48 -24 -7 0 -22 -14 -34 -30 -14 -19 -30 -30 -46 -30 -15 0 -24
-6 -24 -16 0 -11 -6 -13 -19 -9 -11 3 -25 -1 -33 -9 -19 -19 -89 -56 -105 -56
-7 0 -13 -6 -13 -14 0 -10 -10 -14 -35 -11 -19 2 -35 -1 -35 -6 0 -5 -9 -9
-20 -9 -11 0 -20 -6 -20 -13 0 -14 -54 -67 -68 -67 -4 0 -15 -8 -24 -17 -32
-35 -47 -43 -77 -43 -16 0 -32 -4 -35 -9 -3 -5 -15 -7 -26 -4 -11 3 -20 0 -20
-5 0 -15 -82 -62 -108 -62 -18 0 -22 6 -22 29 0 36 -22 55 -55 48 -14 -2 -24
-2 -23 2 29 55 31 63 21 80 -6 10 -8 24 -3 31 6 9 10 7 15 -9 3 -11 10 -21 15
-21 10 0 20 49 10 55 -9 5 -12 85 -4 85 4 0 12 -8 19 -17 11 -15 13 -15 24 5
6 12 9 22 7 22 -3 0 3 15 13 34 12 21 16 38 10 47 -13 21 -11 26 11 32 13 3
20 14 20 31 0 20 4 24 17 19 10 -4 14 -2 9 5 -7 11 31 38 49 34 6 -1 21 24 34
56 14 31 31 61 38 65 7 4 13 21 13 38 0 18 5 29 13 28 25 -3 37 1 37 15 0 7
11 21 25 30 14 9 25 25 25 36 0 11 3 20 8 20 13 0 90 78 117 119 15 21 40 45
56 51 16 7 29 17 29 22 0 5 4 7 8 4 5 -3 16 3 25 12 33 36 64 50 117 54 8 1
17 4 20 9 7 10 138 69 155 69 8 0 18 6 22 13 8 12 27 22 86 46 15 6 48 11 72
11 24 0 56 5 72 11 36 14 90 14 107 0 9 -7 16 -7 24 1 8 8 15 8 25 0 8 -7 45
-14 83 -17 103 -7 164 -14 215 -26 26 -6 53 -12 60 -13 25 -5 54 -19 64 -32 6
-6 25 -14 43 -18 18 -3 53 -21 79 -41 25 -19 51 -35 58 -35 15 0 105 -85 105
-99 0 -6 6 -11 14 -11 8 0 31 -16 53 -35 87 -79 143 -124 162 -130 12 -3 21
-10 21 -15 0 -4 12 -27 27 -49 15 -23 28 -49 29 -59 2 -9 8 -18 13 -20 6 -2
11 -8 11 -13 0 -11 29 -40 58 -56 18 -11 21 -9 31 19 6 17 11 39 11 48 0 20
21 32 38 21 6 -3 15 -34 21 -68 7 -48 6 -77 -6 -130 -20 -90 -25 -135 -13
-128 6 4 10 12 10 20 0 7 5 15 11 17 5 2 14 24 19 48 9 42 26 84 71 172 11 21
22 59 26 85 6 50 37 123 52 123 5 0 12 24 15 54 4 29 14 75 22 101 7 27 14 67
14 89 0 45 7 59 30 68 16 6 60 127 60 164 0 11 7 29 15 40 8 10 15 30 15 44 0
14 9 42 20 62 11 21 23 55 26 78 4 22 10 40 14 40 4 0 11 17 15 38 4 20 16 57
27 82 32 74 63 135 70 140 4 3 11 26 17 50 5 24 18 50 27 57 16 11 35 53 51
108 3 11 12 27 19 35 7 9 16 31 19 50 3 19 12 40 19 45 7 6 19 27 26 48 8 20
17 37 21 37 4 0 10 15 13 34 4 19 13 36 20 39 7 3 16 22 20 41 4 20 11 36 15
36 13 0 61 74 61 94 0 16 11 33 60 93 11 13 13 56 4 66 -4 3 -13 0 -21 -8 -8
-8 -22 -15 -31 -15 -21 0 -50 42 -33 48 6 2 11 8 11 13 0 6 -5 7 -11 3 -6 -3
-33 -8 -60 -10 -52 -4 -56 0 -51 59 1 9 -5 17 -13 17 -11 0 -12 5 -5 25 8 21
7 25 -10 25 -11 0 -20 -4 -20 -9 0 -4 -10 -8 -22 -7 -24 1 -32 25 -13 38 6 5
3 8 -7 8 -10 0 -18 7 -18 15 0 8 -7 15 -16 15 -8 0 -12 5 -9 10 3 6 2 10 -4
10 -5 0 -12 -8 -14 -17 -3 -10 -3 3 -1 29 3 25 0 49 -5 52 -6 4 -6 18 0 38 6
23 5 34 -4 39 -6 4 -25 19 -42 33 -16 14 -38 26 -47 26 -10 0 -19 5 -19 10 -1
6 -3 15 -4 20 -1 6 -3 17 -4 25 0 8 -6 15 -12 15 -11 0 -39 25 -39 35 0 3 5 3
10 0 6 -3 10 1 10 10 0 8 -11 21 -25 27 l-25 11 27 19 c16 10 36 17 46 14 21
-5 22 1 3 20 -9 9 -17 10 -21 4 -3 -5 -24 -10 -45 -10 -29 0 -42 5 -50 19 -7
13 -7 22 0 26 5 3 10 12 10 19 0 11 -16 14 -52 7 -5 0 -17 -10 -28 -21 -12
-12 -20 -15 -20 -7 0 8 -4 7 -11 -3 -9 -12 -10 -11 -6 6 8 36 -8 49 -65 50
-50 1 -126 22 -85 23 31 2 18 19 -18 23 -20 2 -37 2 -40 0 -2 -2 -22 -6 -44
-7 -22 -2 -45 -6 -51 -10 -15 -9 0 -27 19 -22 9 2 22 -1 28 -8 15 -16 -46 -65
-81 -65 -15 0 -26 -5 -26 -12 0 -9 -3 -9 -12 0 -7 7 -20 12 -29 12 -20 0 -15
-36 10 -60 13 -13 12 -15 -10 -18 -26 -4 -52 -22 -31 -22 7 0 12 -13 12 -30 0
-16 4 -30 10 -30 5 0 7 -6 4 -14 -3 -8 -1 -23 5 -33 10 -17 11 -16 17 5 7 24
19 28 30 10 4 -6 -4 -21 -20 -35 -15 -12 -24 -23 -20 -23 3 0 1 -7 -7 -16 -14
-17 -3 -29 39 -40 36 -10 25 -22 -15 -17 -36 4 -39 2 -56 -34 -11 -22 -31 -45
-50 -54 -20 -10 -33 -25 -35 -40 -2 -13 -8 -28 -13 -33 -5 -6 -9 -16 -9 -24 0
-13 -37 -51 -51 -52 -10 0 -39 71 -33 82 4 7 2 8 -4 4 -7 -4 -12 -1 -12 8 0 9
-4 16 -10 16 -5 0 -10 -4 -10 -8 0 -5 -7 -9 -15 -9 -8 0 -15 9 -15 19 0 14 -8
18 -35 18 -24 0 -35 5 -35 15 0 9 -9 15 -25 15 -22 0 -25 4 -25 40 0 38 -2 40
-30 40 -27 0 -30 2 -24 25 4 15 0 34 -8 48 -23 35 -27 64 -12 84 7 10 14 33
14 51 0 34 8 40 28 20 9 -9 15 -9 24 0 9 9 7 12 -10 12 -16 0 -22 6 -22 23 0
18 2 19 11 7 8 -11 12 -12 16 -2 9 23 35 43 63 49 21 4 29 12 34 35 9 45 8 48
-14 48 -15 0 -20 7 -20 28 0 21 -2 24 -10 12 -8 -13 -10 -12 -10 3 0 9 6 17
14 17 10 0 12 12 8 50 l-5 50 36 0 c23 0 37 6 41 16 9 23 8 24 -16 24 -30 0
-54 15 -39 24 15 10 14 53 -2 63 -8 4 -16 16 -20 25 -4 13 -2 15 11 11 15 -6
15 -4 -1 15 -11 12 -20 41 -23 69 -2 26 -9 90 -15 141 -11 78 -15 92 -31 92
-14 0 -18 8 -18 39 0 22 -5 42 -12 44 -10 4 -10 6 0 6 7 1 10 6 7 11 -3 6 -1
10 5 10 6 0 8 5 4 11 -4 7 -9 30 -12 53 -2 23 -8 44 -14 47 -10 7 0 39 13 39
14 0 10 30 -6 46 -19 20 -19 34 0 34 8 0 15 9 15 20 0 11 -7 20 -15 20 -8 0
-15 4 -15 9 0 5 7 11 15 15 8 3 15 16 15 30 0 13 6 27 13 30 8 3 7 9 -6 20
-14 11 -17 22 -12 44 4 19 1 38 -7 51 -11 18 -10 23 10 37 18 12 20 19 12 29
-15 18 -9 61 8 57 6 -1 12 3 12 9 0 5 5 7 10 4 6 -3 10 -16 10 -28 0 -15 3
-18 11 -10 8 8 8 19 -2 42 -8 17 -17 31 -21 31 -14 0 -8 40 9 60 10 11 19 32
20 47 2 16 4 34 5 41 1 6 7 13 15 13 28 3 32 4 42 14 6 6 7 16 2 24 -7 11 -14
9 -35 -13 -43 -42 -77 -32 -36 12 11 12 20 32 20 45 0 28 24 54 35 37 9 -15
22 -12 29 6 3 8 2 12 -4 9 -6 -4 -10 10 -10 35 0 24 4 39 10 35 5 -3 16 5 25
19 13 19 14 29 6 45 -14 25 -14 81 -1 81 6 0 10 -7 10 -15 0 -8 7 -15 15 -15
8 0 15 3 15 8 -1 12 -27 42 -37 42 -13 0 -22 55 -12 71 4 8 20 10 43 6 26 -4
36 -2 36 7 0 8 -9 16 -20 19 -26 7 -26 27 0 34 11 3 20 9 20 14 0 5 -594 9
-1395 9 l-1395 0 0 -1000z m2553 300 c3 -11 1 -18 -4 -14 -5 3 -9 12 -9 20 0
20 7 17 13 -6z m-2045 -1278 c0 -15 0 -96 1 -181 1 -148 1 -154 -21 -173 -20
-17 -23 -18 -26 -4 -2 9 -8 16 -14 16 -7 0 -8 20 -3 63 4 34 9 85 11 112 5 96
16 157 25 143 6 -8 9 0 9 25 0 22 4 36 10 32 5 -3 9 -18 8 -33z m2112 -142 c0
-5 -7 -10 -15 -10 -8 0 -15 5 -15 10 0 6 7 10 15 10 8 0 15 -4 15 -10z m-73
-36 c-3 -3 -12 -4 -19 -1 -8 3 -5 6 6 6 11 1 17 -2 13 -5z m-37 -70 c0 -8 -7
-14 -15 -14 -8 0 -16 -8 -16 -17 -1 -17 -2 -17 -6 0 -2 9 -9 17 -14 17 -17 0
-9 15 14 26 26 12 37 9 37 -12z m-2133 -20 c-3 -3 -12 -4 -19 -1 -8 3 -5 6 6
6 11 1 17 -2 13 -5z m2713 -3 c0 -6 -9 -9 -20 -8 -11 1 -20 5 -20 9 0 4 9 8
20 8 11 0 20 -4 20 -9z m323 -66 c-18 -24 -43 -34 -43 -16 0 9 40 40 53 40 4
1 0 -10 -10 -24z m-363 -255 c0 -5 -6 -10 -14 -10 -8 0 -18 5 -21 10 -3 6 3
10 14 10 12 0 21 -4 21 -10z m-100 -40 c0 -5 6 -7 14 -4 8 3 17 1 21 -5 3 -7
-2 -11 -14 -11 -11 0 -23 -5 -27 -11 -5 -8 -10 -6 -16 5 -10 17 -3 36 13 36 5
0 9 -4 9 -10z m-233 -52 c-3 -8 -6 -5 -6 6 -1 11 2 17 5 13 3 -3 4 -12 1 -19z
m2728 -28 c3 -5 1 -10 -4 -10 -6 0 -11 5 -11 10 0 6 2 10 4 10 3 0 8 -4 11
-10z m-187 -38 c2 -15 -2 -22 -12 -22 -11 0 -16 9 -16 26 0 31 23 28 28 -4z
m281 -48 c36 -7 49 -43 24 -62 -10 -7 -24 -10 -31 -7 -18 7 -54 -13 -47 -26 4
-5 -3 -9 -14 -9 -11 0 -28 -8 -38 -19 -10 -10 -27 -21 -39 -25 -11 -3 -33 -26
-48 -51 -16 -25 -33 -45 -38 -45 -5 0 -6 -4 -3 -10 3 -5 -1 -10 -9 -10 -9 0
-15 3 -14 8 3 16 -15 42 -29 42 -10 0 -14 -7 -10 -20 3 -11 0 -34 -6 -50 -10
-25 -9 -32 7 -43 15 -11 17 -18 8 -33 -10 -17 -11 -17 -12 -2 0 12 -5 15 -17
11 -10 -4 -14 -2 -10 4 6 9 -5 16 -36 21 -4 1 -20 8 -36 16 -16 9 -32 12 -36
8 -4 -4 -4 3 -1 16 5 14 1 31 -12 50 -35 50 -35 62 0 62 19 0 41 9 56 23 18
16 37 22 75 23 101 2 226 59 219 98 -6 35 6 49 38 42 17 -3 43 -9 59 -12z
m691 -62 c0 -4 -15 -23 -34 -41 -30 -29 -39 -33 -68 -27 -28 5 -38 2 -58 -19
-30 -31 -75 -34 -90 -4 -15 27 -12 29 47 37 33 5 48 12 48 22 0 11 14 16 55
18 30 2 59 7 65 13 11 11 35 12 35 1z m-595 -32 c3 -6 15 -10 25 -10 24 0 38
-44 20 -65 -7 -8 -16 -12 -21 -9 -5 2 -20 -3 -34 -12 -14 -9 -34 -14 -45 -11
-11 3 -30 -3 -42 -12 -21 -16 -108 -28 -108 -16 0 9 44 70 53 73 4 2 7 11 7
19 0 9 6 13 15 9 9 -3 29 8 51 29 29 28 39 33 54 25 10 -6 22 -15 25 -20z
m-541 14 c20 -8 20 -28 0 -48 -21 -22 -51 -20 -64 3 -17 33 22 61 64 45z m817
-28 c11 -39 -6 -59 -40 -51 -35 9 -51 24 -44 41 3 8 0 14 -7 14 -6 0 -9 -4 -5
-9 3 -6 -4 -9 -15 -8 -12 1 -20 8 -20 19 0 13 10 18 43 21 72 7 80 4 88 -27z
m680 1 c-1 -12 -15 -9 -19 4 -3 6 1 10 8 8 6 -3 11 -8 11 -12z m-48 -47 c-19
-32 -29 -37 -36 -17 -5 14 22 46 41 46 10 1 8 -7 -5 -29z m-611 -82 c45 -50
35 -76 -20 -56 -27 10 -37 10 -59 -4 -17 -10 -39 -14 -56 -11 -24 5 -27 9 -23
40 4 44 11 49 41 33 23 -12 28 -12 48 8 28 29 35 28 69 -10z m-944 -5 c-4 -27
10 -43 37 -43 46 0 55 -9 55 -61 0 -36 -6 -54 -23 -73 -22 -24 -23 -24 -47 -6
-22 17 -23 20 -11 44 19 35 1 56 -50 56 -52 0 -52 27 -1 69 44 36 44 36 40 14z
m-249 -2 c12 -8 12 -12 2 -25 -24 -29 -95 -12 -84 20 4 13 64 17 82 5z m1657
-13 c12 -13 -8 -48 -27 -48 -13 0 -19 7 -19 23 0 13 3 26 6 29 7 7 31 4 40 -4z
m174 3 c2 -1 -1 -6 -7 -12 -12 -12 -56 -3 -49 10 4 6 27 7 56 2z m-1055 -43
c-7 -33 -7 -33 10 -11 15 22 17 22 40 7 33 -22 33 -57 0 -72 -35 -16 -46 -15
-39 3 4 8 -1 17 -9 21 -20 7 -31 52 -16 70 18 22 21 17 14 -18z m1090 22 c3
-6 -1 -7 -9 -4 -18 7 -21 14 -7 14 6 0 13 -4 16 -10z m103 -32 c2 -4 9 -5 15
-2 7 3 -3 -8 -21 -25 -40 -38 -59 -39 -73 -4 -8 22 -7 30 7 40 18 13 66 7 72
-9z m-1372 4 c6 -4 14 -17 18 -28 4 -12 18 -34 32 -49 30 -32 27 -49 -8 -53
-21 -3 -26 2 -31 27 -5 25 -12 31 -32 31 -17 0 -24 4 -19 11 4 7 8 21 9 33 4
34 5 36 13 36 4 0 12 -4 18 -8z m-2563 -34 c7 -28 9 -222 3 -263 -3 -16 -8
-55 -11 -85 -5 -45 -11 -57 -30 -67 -23 -10 -25 -9 -31 25 -4 20 -2 50 6 69 6
19 9 49 6 66 -9 52 -18 256 -11 267 3 6 19 10 35 10 21 0 29 -6 33 -22z m3326
-9 c23 -25 13 -59 -17 -59 -26 0 -45 36 -32 60 14 26 24 25 49 -1z m831 -43
c0 -3 -4 -8 -10 -11 -5 -3 -10 -1 -10 4 0 6 5 11 10 11 6 0 10 -2 10 -4z
m-1780 -86 c0 -5 -5 -10 -11 -10 -5 0 -7 5 -4 10 3 6 8 10 11 10 2 0 4 -4 4
-10z m100 -54 c0 -20 -16 -36 -36 -36 -26 0 -30 10 -12 28 11 11 48 17 48 8z
m-696 -71 c-4 -8 -8 -15 -10 -15 -2 0 -4 7 -4 15 0 8 4 15 10 15 5 0 7 -7 4
-15z m371 -25 c3 -5 2 -10 -4 -10 -5 0 -13 5 -16 10 -3 6 -2 10 4 10 5 0 13
-4 16 -10z m-321 -75 c-7 -17 -30 -20 -39 -5 -4 6 -4 18 -1 26 4 11 10 12 25
4 12 -6 18 -16 15 -25z m323 9 c-9 -9 -28 6 -21 18 4 6 10 6 17 -1 6 -6 8 -13
4 -17z m263 6 c0 -22 -34 -44 -56 -36 -18 7 -18 21 2 40 22 23 54 21 54 -4z
m-2440 -80 c0 -5 -2 -10 -4 -10 -3 0 -8 5 -11 10 -3 6 -1 10 4 10 6 0 11 -4
11 -10z m4700 1 c0 -6 -4 -13 -10 -16 -5 -3 -10 1 -10 9 0 9 5 16 10 16 6 0
10 -4 10 -9z m266 -26 c10 -26 -5 -65 -25 -65 -20 0 -51 25 -51 40 0 32 66 53
76 25z m-3608 -86 c-9 -6 -14 -3 -16 8 -2 8 2 19 10 24 9 6 14 3 16 -8 2 -8
-2 -19 -10 -24z m-58 -194 c0 -17 -2 -18 -24 -9 -23 9 -20 24 4 24 11 0 20 -7
20 -15z m51 -68 c-10 -9 -11 -8 -5 6 3 10 9 15 12 12 3 -3 0 -11 -7 -18z
m2791 -52 c10 -21 9 -29 -5 -43 -25 -24 -52 -5 -52 37 0 26 4 31 23 31 14 0
27 -9 34 -25z m-2125 -59 c-4 -9 -14 -16 -22 -16 -9 0 -14 3 -12 8 2 4 7 16
11 26 5 14 10 16 18 8 6 -6 8 -18 5 -26z m2226 -17 c12 -11 40 -30 62 -41 50
-25 125 -97 125 -119 0 -11 -11 -20 -31 -24 -17 -4 -31 -5 -33 -3 -67 105
-120 163 -141 154 -9 -3 -13 -2 -10 4 3 6 -1 10 -9 10 -9 0 -14 8 -13 20 2 26
22 25 50 -1z m740 -4 c-7 -19 -33 -20 -33 -1 0 15 20 26 32 19 4 -2 5 -10 1
-18z m347 10 c10 -12 10 -18 0 -30 -7 -8 -18 -15 -25 -15 -19 0 -36 25 -29 44
8 20 38 21 54 1z m-4027 -160 c1 -5 -6 -11 -15 -13 -11 -2 -18 3 -18 13 0 17
30 18 33 0z m3192 -69 c15 -80 15 -87 -3 -84 -9 2 -16 10 -14 17 2 9 -4 12
-17 8 -31 -8 -41 13 -29 60 10 39 11 41 34 31 14 -6 26 -21 29 -32z m-2942 -9
c4 3 7 -7 7 -24 0 -22 -6 -33 -25 -41 -16 -8 -25 -20 -26 -37 -3 -46 -4 -50
-21 -53 -27 -5 -25 7 16 85 9 18 17 35 16 38 -3 37 1 47 13 36 8 -6 17 -8 20
-4z m-261 -29 c-9 -9 -15 -9 -24 0 -9 9 -7 12 12 12 19 0 21 -3 12 -12z m2978
-42 c0 -2 -9 -6 -20 -9 -11 -3 -18 -1 -14 4 5 9 34 13 34 5z m-150 -32 c2 -3
-1 -14 -8 -25 -11 -18 -9 -25 18 -56 17 -19 42 -45 57 -57 23 -20 24 -23 9
-35 -14 -11 -20 -9 -45 18 -16 17 -39 31 -51 31 -26 0 -60 17 -60 30 0 5 9 18
21 29 19 18 20 21 5 43 -9 14 -13 28 -9 32 7 7 53 -1 63 -10z m-330 -19 c12
-13 12 -15 -6 -15 -11 0 -26 6 -33 13 -10 10 -14 9 -22 -5 -7 -13 -22 -18 -54
-18 -35 0 -43 3 -41 18 5 33 124 38 156 7z m778 -20 c11 -18 37 -41 58 -51 22
-11 45 -31 52 -46 7 -15 32 -37 57 -49 25 -12 45 -26 45 -30 0 -32 82 -113
140 -140 14 -6 43 -20 66 -30 23 -11 44 -19 48 -19 16 0 36 -30 36 -55 0 -18
7 -28 25 -35 14 -5 30 -22 36 -37 12 -34 107 -125 121 -117 11 7 48 -24 48
-42 0 -7 14 -24 31 -38 17 -15 42 -48 55 -74 14 -26 34 -63 46 -82 l21 -35
-37 38 c-21 20 -41 37 -45 37 -5 0 -46 34 -92 75 -45 41 -88 75 -95 75 -7 0
-36 22 -66 50 -29 27 -57 50 -63 50 -5 0 -46 25 -90 56 -44 30 -92 63 -106 72
-15 9 -32 24 -38 34 -10 16 -8 18 14 18 31 0 31 13 2 65 -18 31 -30 41 -57 46
-72 12 -91 24 -71 45 12 11 -51 84 -96 111 -42 25 -93 96 -93 128 0 33 23 24
48 -20z m-1041 21 c13 -1 25 -6 27 -12 5 -14 -145 -27 -158 -14 -15 14 46 41
79 34 17 -4 40 -7 52 -8z m-257 -26 c0 -16 -32 -41 -49 -38 -23 5 -26 39 -6
54 18 14 55 3 55 -16z m619 9 c12 -20 11 -21 -11 -16 -12 4 -29 7 -35 7 -7 0
-13 7 -13 15 0 23 43 18 59 -6z m566 9 c49 -22 16 -58 -41 -44 -28 7 -32 31
-6 45 21 13 17 13 47 -1z m-3233 -34 c-9 -13 -27 -24 -39 -24 -30 0 -29 6 4
34 35 31 60 24 35 -10z m1917 -10 c7 -6 -21 -34 -34 -34 -12 0 -25 21 -25 42
0 9 48 3 59 -8z m2161 -9 c0 -8 -4 -15 -10 -15 -5 0 -10 7 -10 15 0 8 5 15 10
15 6 0 10 -7 10 -15z m-1280 -5 c0 -5 -4 -10 -10 -10 -5 0 -10 5 -10 10 0 6 5
10 10 10 6 0 10 -4 10 -10z m-993 -17 c4 -11 -26 -27 -35 -19 -2 3 -2 12 2 21
6 18 27 16 33 -2z m2322 -40 c23 -20 71 -106 71 -128 0 -60 -103 46 -109 113
-3 36 7 40 38 15z m-2049 -46 c0 -21 -43 -37 -61 -23 -12 8 -13 14 -5 23 15
17 66 16 66 0z m-122 -28 c2 -11 -6 -19 -23 -23 -35 -9 -65 1 -59 19 11 27 77
30 82 4z m-176 -41 c-6 -6 -25 -11 -41 -11 -23 0 -31 -5 -33 -21 -2 -15 -10
-21 -27 -21 -49 0 -33 42 20 55 55 13 95 12 81 -2z m728 -3 c15 -19 -3 -45
-31 -45 -19 0 -51 38 -43 52 9 14 61 9 74 -7z m-1770 -6 c0 -14 -30 -38 -47
-39 -7 0 -13 11 -13 25 0 21 5 25 30 25 17 0 30 -5 30 -11z m1903 5 c27 -5 37
-12 37 -25 0 -23 -30 -32 -85 -23 -47 7 -59 25 -27 43 20 12 26 13 75 5z
m-1505 -21 c-5 -25 -28 -28 -28 -4 0 12 6 21 16 21 9 0 14 -7 12 -17z m1020
-19 c-16 -16 -38 -12 -38 6 0 8 41 19 49 13 3 -2 -2 -11 -11 -19z m1183 0 c13
-16 21 -44 13 -44 -14 0 -54 34 -54 46 0 19 25 18 41 -2z m71 -25 c2 -7 17
-13 33 -15 39 -4 89 -64 54 -64 -14 0 -33 20 -42 43 -5 13 -13 16 -26 12 -16
-5 -51 16 -51 31 0 9 29 3 32 -7z m-2778 -7 c9 -15 -33 -71 -58 -78 -56 -14
-55 38 0 56 19 7 34 16 34 21 0 11 17 12 24 1z m30 -8 c3 -8 2 -12 -4 -9 -6 3
-10 10 -10 16 0 14 7 11 14 -7z m801 6 c3 -5 1 -19 -5 -30 -19 -35 -111 -22
-97 13 8 22 90 36 102 17z m1415 -6 c0 -11 -5 -14 -16 -10 -9 3 -18 6 -20 6
-3 0 -2 5 1 10 10 16 35 12 35 -6z m227 -46 c18 -18 29 -36 26 -45 -4 -10 -9
-11 -16 -4 -6 6 -21 11 -33 11 -20 0 -43 24 -56 61 -10 26 42 11 79 -23z
m-1767 13 c0 -5 -9 -11 -20 -14 -22 -6 -26 3 -8 21 11 11 28 7 28 -7z m-4593
-73 c-3 -8 -6 -5 -6 6 -1 11 2 17 5 13 3 -3 4 -12 1 -19z m3767 5 c6 -15 -20
-43 -40 -43 -13 0 -46 -18 -83 -45 -7 -5 -25 -22 -39 -37 -15 -16 -34 -28 -43
-28 -9 0 -24 -9 -34 -20 -10 -11 -23 -20 -28 -20 -6 0 -30 -9 -54 -21 -24 -12
-50 -18 -59 -15 -13 5 -13 10 3 38 25 46 44 68 54 63 17 -11 124 25 139 47 35
52 61 73 102 84 54 14 76 13 82 -3z m155 -12 c17 -11 7 -41 -13 -41 -21 0 -40
37 -23 43 18 8 21 8 36 -2z m-3957 -40 c31 -31 33 -69 3 -57 -8 3 -22 3 -31
-1 -22 -8 5 -25 29 -17 9 3 17 1 17 -4 0 -11 -61 -19 -97 -14 -20 3 -23 9 -23
45 0 31 3 38 11 30 9 -9 15 -8 25 2 18 18 18 35 -1 35 -8 0 -15 5 -15 10 0 19
51 1 82 -29z m6611 13 c39 -20 67 -48 67 -68 0 -18 -28 -10 -87 23 -41 23 -51
39 -36 54 10 10 21 9 56 -9z m697 6 c0 -5 -4 -10 -10 -10 -5 0 -10 5 -10 10 0
6 5 10 10 10 6 0 10 -4 10 -10z m-506 -79 c29 -16 66 -31 82 -33 21 -2 30 -9
32 -26 3 -20 9 -23 40 -21 20 2 45 8 54 13 26 15 70 -29 62 -61 -5 -18 -2 -25
13 -29 10 -3 27 -17 37 -32 16 -25 55 -48 126 -75 33 -13 126 -88 122 -98 -1
-5 11 -9 27 -9 23 0 36 -9 57 -37 15 -21 47 -53 71 -71 24 -18 48 -44 53 -58
5 -13 22 -29 37 -35 15 -5 49 -32 77 -60 39 -39 47 -52 37 -62 -8 -8 -14 -9
-19 -1 -4 6 -24 19 -46 29 -21 10 -72 51 -113 91 -42 41 -85 76 -97 80 -11 4
-29 15 -39 25 -10 11 -22 19 -27 19 -6 0 -10 7 -10 15 0 8 -5 15 -12 15 -6 0
-42 29 -79 65 -37 36 -74 65 -83 65 -8 0 -28 16 -43 35 -15 19 -34 35 -41 35
-7 0 -34 12 -58 26 -32 19 -47 35 -51 55 -7 37 -17 43 -42 27 -16 -10 -23 -10
-33 0 -6 6 -24 12 -39 12 -15 0 -32 6 -38 14 -7 8 -27 17 -45 20 -41 8 -86 48
-86 76 0 27 9 25 74 -9z m-7407 3 c-3 -3 -12 -4 -19 -1 -8 3 -5 6 6 6 11 1 17
-2 13 -5z m4874 -37 c-1 -12 -15 -9 -19 4 -3 6 1 10 8 8 6 -3 11 -8 11 -12z
m-4724 -17 c-1 -21 -10 -18 -13 5 -1 8 2 15 6 15 5 0 8 -9 7 -20z m423 -4 c0
-3 -4 -8 -10 -11 -5 -3 -10 -1 -10 4 0 6 5 11 10 11 6 0 10 -2 10 -4z m-350
-22 c0 -2 -7 -4 -15 -4 -8 0 -15 4 -15 10 0 5 7 7 15 4 8 -4 15 -8 15 -10z
m4530 -52 c0 -18 -33 -52 -51 -52 -26 0 -24 15 7 39 28 22 44 27 44 13z m3588
-24 c-2 -13 -10 -23 -18 -23 -8 0 -16 10 -18 23 -3 17 2 22 18 22 16 0 21 -5
18 -22z m-8050 5 c-10 -2 -26 -2 -35 0 -10 3 -2 5 17 5 19 0 27 -2 18 -5z
m4232 -28 c19 -23 1 -36 -54 -42 -50 -6 -59 6 -29 39 20 22 66 24 83 3z
m-3933 -67 c-3 -8 -6 -5 -6 6 -1 11 2 17 5 13 3 -3 4 -12 1 -19z m-337 -18 c0
-5 -5 -10 -11 -10 -5 0 -7 5 -4 10 3 6 8 10 11 10 2 0 4 -4 4 -10z m3625 -40
c0 -8 -10 -16 -22 -18 -22 -3 -32 16 -16 32 12 11 38 2 38 -14z m-201 -82 c12
-32 11 -38 -6 -52 -23 -20 -28 -20 -28 -1 0 7 -6 18 -14 22 -7 4 -18 18 -25
30 -9 18 -8 24 6 32 31 19 54 8 67 -31z m4488 -8 c12 -11 19 -23 15 -26 -8 -8
-47 24 -47 38 0 13 9 10 32 -12z m-3947 -29 c8 -14 -33 -40 -55 -34 -11 3 -34
0 -51 -6 -39 -13 -56 -5 -35 18 11 12 33 18 63 20 26 1 49 3 51 6 8 8 20 6 27
-4z m-235 -111 c0 -5 -9 -10 -21 -10 -11 0 -17 5 -14 10 3 6 13 10 21 10 8 0
14 -4 14 -10z m4407 -92 c6 -5 16 -22 22 -39 8 -23 7 -29 -5 -29 -7 0 -14 4
-14 9 0 5 -10 13 -22 17 -25 7 -59 45 -51 56 5 9 53 0 70 -14z m76 -103 c12
-17 14 -26 5 -31 -7 -4 -8 -3 -4 4 4 7 1 12 -8 12 -9 0 -16 2 -16 4 0 2 -3 11
-6 20 -9 24 9 19 29 -9z m-80 -10 c16 -22 16 -25 2 -25 -9 0 -13 5 -10 10 3 6
0 10 -8 10 -8 0 -17 7 -21 15 -9 24 17 17 37 -10z m-4783 -46 c0 -5 -8 -12
-17 -16 -10 -3 -26 -13 -35 -21 -27 -23 -21 1 7 32 23 25 45 28 45 5z m4850
-15 c0 -8 -5 -12 -10 -9 -6 4 -8 11 -5 16 9 14 15 11 15 -7z m88 -74 c-13 -20
-28 -27 -28 -12 0 10 22 32 32 32 5 0 3 -9 -4 -20z m52 5 c7 -8 8 -15 2 -15
-5 0 -15 7 -22 15 -7 8 -8 15 -2 15 5 0 15 -7 22 -15z m-5130 -22 c0 -18 -38
-64 -62 -74 -15 -6 -49 -31 -75 -56 -83 -78 -113 -103 -123 -103 -16 0 -11 40
5 46 8 4 15 12 15 20 0 7 17 21 38 31 39 18 82 60 82 80 0 6 19 22 43 35 40
23 77 33 77 21z m-2562 -64 c12 0 13 -2 3 -6 -11 -4 -11 -7 0 -14 8 -4 12 -22
11 -43 -3 -42 10 -47 27 -10 13 30 30 28 42 -4 7 -18 4 -25 -14 -32 -12 -5
-17 -9 -11 -9 13 -1 26 -51 13 -51 -5 0 -9 -7 -9 -15 0 -9 -9 -15 -25 -15 -14
0 -35 -9 -47 -20 -13 -10 -43 -30 -68 -43 -34 -18 -46 -30 -48 -50 -2 -15 1
-27 7 -27 6 0 11 9 11 20 0 11 5 20 10 20 21 0 10 -58 -15 -78 -14 -11 -25
-24 -25 -29 0 -6 -11 -15 -25 -21 -14 -6 -25 -8 -25 -3 0 15 -45 29 -63 19 -9
-5 -17 -6 -17 -2 0 8 -30 -31 -45 -59 -15 -28 -30 -21 -31 16 0 17 -4 39 -7
47 -9 20 10 50 21 33 15 -23 27 3 29 64 2 67 23 113 53 113 13 0 16 6 12 25
-5 29 3 32 25 10 18 -19 25 -14 28 18 2 17 -2 24 -14 23 -9 0 -20 -5 -24 -11
-5 -6 -7 -4 -4 5 2 8 13 20 25 26 12 6 19 14 15 18 -4 4 0 4 10 0 10 -3 17 -1
17 5 0 19 49 12 60 -9 6 -11 15 -20 21 -20 6 0 7 5 4 10 -3 6 -2 10 3 10 9 0
10 3 16 60 4 45 3 43 22 36 9 -3 23 -6 32 -7z m2192 1 c0 -5 -2 -10 -4 -10 -3
0 -8 5 -11 10 -3 6 -1 10 4 10 6 0 11 -4 11 -10z m5524 -46 c4 -9 4 -19 1 -22
-7 -8 -35 19 -29 29 8 14 21 11 28 -7z m-5588 -95 c-1 -18 -9 -37 -17 -43 -8
-6 -23 -30 -34 -54 -10 -24 -29 -51 -41 -61 -13 -10 -26 -31 -30 -47 -8 -34
-20 -51 -46 -65 -15 -8 -18 -6 -18 10 0 11 8 27 17 36 27 27 52 81 59 125 4
22 10 40 14 40 5 0 18 16 30 36 13 20 32 39 44 44 11 5 22 9 23 9 0 1 0 -13
-1 -30z m-1670 -30 c8 -14 -18 -31 -30 -19 -9 9 0 30 14 30 5 0 12 -5 16 -11z
m1804 -36 c-1 -5 -11 -28 -23 -53 -16 -33 -30 -47 -54 -54 -17 -5 -36 -20 -42
-33 -11 -24 -26 -30 -36 -14 -3 5 5 18 17 28 13 10 31 31 41 46 31 48 98 103
97 80z m-205 -222 c6 -11 -64 -85 -72 -77 -7 7 18 69 31 78 15 11 34 10 41 -1z
m-2275 -25 c0 -2 -8 -10 -17 -17 -16 -13 -17 -12 -4 4 13 16 21 21 21 13z
m2150 -82 c0 -18 -24 -44 -40 -44 -24 0 -26 13 -4 34 15 15 44 22 44 10z"/>
<path d="M7624 7199 c-3 -6 -1 -16 5 -22 6 -6 11 -9 12 -6 0 2 2 12 4 22 4 19
-10 23 -21 6z"/>
<path d="M855 6010 c3 -5 8 -10 11 -10 2 0 4 5 4 10 0 6 -5 10 -11 10 -5 0 -7
-4 -4 -10z"/>
<path d="M2805 11990 c3 -5 13 -10 21 -10 8 0 14 5 14 10 0 6 -9 10 -21 10
-11 0 -17 -4 -14 -10z"/>
<path d="M11210 11960 c0 -29 -4 -40 -15 -40 -11 0 -15 -11 -15 -37 0 -21 -4
-45 -10 -53 -5 -8 -5 -19 0 -25 8 -10 10 -16 10 -35 0 -5 7 -10 15 -10 11 0
15 -11 15 -40 0 -30 4 -40 16 -40 12 0 15 -11 13 -52 -1 -29 4 -98 10 -153 10
-82 10 -116 -2 -190 -9 -49 -15 -80 -16 -67 -1 12 -5 22 -11 22 -10 0 -13 -17
-10 -62 1 -14 -3 -29 -9 -33 -6 -3 -11 -14 -11 -24 0 -10 -9 -26 -20 -36 -15
-14 -20 -31 -20 -71 0 -32 -5 -55 -12 -58 -10 -5 -10 -7 0 -12 10 -5 8 -12 -9
-30 -15 -16 -22 -35 -21 -54 2 -21 -3 -30 -19 -35 -12 -4 -18 -12 -15 -21 8
-21 -4 -44 -23 -44 -12 0 -13 -2 -3 -8 10 -7 8 -14 -8 -32 -11 -12 -17 -27
-14 -31 3 -5 -2 -9 -10 -9 -9 0 -16 -4 -16 -10 0 -5 -7 -10 -16 -10 -8 0 -12
-4 -9 -10 3 -5 0 -10 -7 -10 -10 0 -10 -2 0 -8 9 -6 10 -16 1 -40 -6 -18 -16
-29 -21 -25 -8 4 -9 -17 -4 -69 5 -61 4 -77 -9 -88 -13 -11 -13 -15 2 -41 9
-15 20 -26 25 -23 4 3 8 -2 8 -10 0 -9 -4 -16 -9 -16 -5 0 -9 -21 -10 -47 0
-27 -3 -63 -7 -82 -5 -26 -4 -32 6 -26 9 5 11 4 6 -4 -4 -6 -8 -42 -8 -79 -1
-42 -4 -58 -8 -42 -6 22 -9 18 -23 -32 -21 -71 -21 -75 2 -81 23 -6 25 -47 3
-47 -7 0 -10 5 -6 12 4 7 3 8 -5 4 -9 -6 -9 -11 0 -22 9 -11 8 -14 -7 -14 -17
-1 -17 -2 -4 -13 30 -24 8 -129 -23 -110 -6 4 -7 -5 -3 -23 13 -55 14 -74 5
-80 -5 -3 -9 -18 -9 -35 0 -17 -5 -28 -12 -27 -7 2 -12 -2 -13 -8 0 -6 -8 -18
-17 -28 -17 -16 -22 -30 -19 -48 0 -5 -3 -8 -7 -8 -4 0 -8 -10 -9 -22 -1 -11
-6 -24 -11 -27 -9 -6 -28 -69 -24 -82 1 -4 -10 -19 -23 -33 -13 -14 -22 -32
-19 -40 3 -8 -3 -16 -15 -19 -13 -3 -21 -13 -21 -26 0 -11 -6 -24 -13 -28 -31
-19 -57 -72 -57 -117 0 -25 -4 -46 -10 -46 -5 0 -10 -18 -10 -40 0 -28 -6 -45
-20 -57 -11 -10 -20 -26 -20 -36 0 -10 -7 -25 -15 -33 -8 -9 -15 -29 -15 -45
0 -16 -4 -29 -10 -29 -15 0 -12 -103 3 -124 12 -17 14 -122 3 -134 -3 -3 -6 0
-6 6 0 7 -10 2 -22 -10 -14 -14 -17 -23 -10 -26 15 -5 39 -57 47 -104 3 -21
11 -38 17 -38 6 0 8 -10 4 -25 -4 -14 -2 -25 4 -25 5 0 10 -4 10 -10 0 -5 9
-19 20 -30 25 -25 26 -40 3 -40 -14 0 -13 -3 5 -16 12 -8 22 -24 22 -34 0 -11
10 -25 23 -31 26 -14 47 -41 41 -51 -3 -4 4 -13 16 -20 11 -7 20 -18 20 -25 0
-7 10 -18 23 -24 28 -14 77 -70 77 -87 0 -7 7 -15 15 -18 8 -4 13 -9 10 -14
-2 -4 6 -12 18 -19 13 -7 28 -24 33 -39 6 -15 24 -34 40 -42 38 -19 67 -48 59
-60 -3 -5 2 -18 12 -28 22 -23 93 -104 110 -125 6 -8 51 -27 100 -42 95 -30
209 -36 228 -12 6 7 17 13 25 13 30 1 96 17 130 32 19 9 51 18 70 20 19 2 42
10 51 18 17 16 69 10 69 -7 0 -5 5 -9 11 -9 6 0 9 7 5 15 -6 16 8 19 72 15 19
-1 56 1 83 5 l49 7 0 2169 0 2169 -395 0 -395 0 0 -40z"/>
<path d="M6403 10802 c-8 -5 -3 -11 13 -19 13 -6 24 -7 24 -2 0 5 -6 9 -12 9
-9 0 -8 4 2 10 13 9 13 10 0 10 -8 0 -20 -4 -27 -8z"/>
<path d="M6232 10754 c-1 -30 1 -31 36 -30 28 1 37 -3 40 -18 2 -11 10 -26 18
-34 8 -7 14 -17 14 -22 0 -34 -99 0 -100 35 0 17 -2 18 -11 5 -8 -11 -12 -12
-16 -2 -2 6 -13 12 -23 12 -10 0 -20 6 -23 13 -2 6 -8 0 -12 -15 -4 -16 -11
-25 -16 -22 -5 3 -9 0 -9 -6 0 -6 -7 -10 -16 -8 -10 2 -19 -3 -21 -9 -3 -7 0
-13 6 -13 6 0 11 -7 11 -15 0 -8 -9 -15 -20 -15 -22 0 -46 35 -30 45 5 3 10
15 10 26 0 10 7 19 15 19 8 0 15 4 15 9 0 15 -98 10 -104 -5 -3 -8 -20 -14
-41 -14 -19 0 -35 -4 -35 -10 0 -5 6 -10 14 -10 8 0 16 -7 20 -15 4 -11 -2
-15 -22 -15 -21 0 -24 -2 -12 -10 10 -6 11 -10 3 -10 -8 0 -13 -13 -13 -30 0
-16 -5 -30 -11 -30 -5 0 -8 4 -5 8 2 4 1 14 -5 22 -7 12 -9 10 -9 -7 0 -17 -6
-23 -21 -23 -12 0 -28 -8 -35 -17 -12 -16 -15 -16 -26 -3 -7 8 -27 16 -45 17
-28 2 -32 -1 -40 -35 -7 -29 -13 -36 -28 -34 -17 3 -16 1 4 -15 14 -12 24 -31
25 -49 1 -27 4 -29 29 -26 15 2 27 9 27 14 0 6 7 8 15 4 13 -5 20 5 16 27 0 4
7 7 17 7 14 0 22 -13 32 -56 11 -45 20 -60 49 -80 20 -13 44 -24 53 -24 10 0
18 -5 18 -11 0 -7 11 -4 26 6 21 14 31 15 51 6 13 -6 21 -16 18 -21 -4 -6 -3
-10 2 -8 4 1 23 -2 41 -6 27 -6 36 -4 46 10 8 10 27 19 44 20 26 2 32 -2 37
-25 6 -31 44 -41 46 -13 0 11 3 12 6 5 8 -21 30 -15 62 17 17 18 32 26 36 20
4 -6 11 -8 16 -5 5 4 9 2 9 -4 0 -5 8 -12 18 -14 12 -3 11 -5 -6 -6 -13 0 -20
-6 -17 -11 3 -6 -1 -13 -9 -16 -22 -9 -20 -24 3 -24 37 0 51 12 51 42 0 19 4
28 13 25 6 -2 11 -10 9 -16 -4 -20 70 -9 76 11 2 10 8 15 13 12 10 -6 23 39
23 84 0 17 4 32 8 32 4 0 8 34 8 75 0 59 3 75 14 75 8 0 17 4 21 9 3 6 -4 9
-15 8 -11 -1 -20 -5 -20 -10 0 -4 -4 -6 -10 -2 -5 3 -18 -3 -28 -13 -19 -19
-96 -36 -86 -20 3 4 11 8 17 8 7 0 18 9 25 21 11 18 11 24 -2 38 -19 21 -20
38 -3 44 8 4 7 6 -3 6 -9 1 -22 -5 -29 -11 -10 -11 -12 -10 -11 2 5 33 1 45
-12 32 -7 -7 -18 -12 -26 -12 -11 0 -11 3 1 15 18 18 16 50 -4 50 -8 0 -15
-10 -17 -22 -4 -27 -22 -31 -23 -5 0 12 -3 10 -10 -7 -11 -28 -31 -17 -35 21
-1 13 -3 26 -3 30 -1 3 -9 4 -20 1 -10 -2 -25 3 -34 11 -8 9 -22 16 -30 16 -9
0 -17 6 -20 13 -2 6 -4 -2 -5 -19z m-242 -134 c0 -12 -7 -20 -17 -20 -15 0
-16 2 -3 10 11 7 11 10 2 10 -7 0 -10 5 -7 10 10 17 25 11 25 -10z m3 -49 c3
-11 2 -22 -1 -25 -10 -11 -52 -6 -52 5 0 6 9 9 20 6 22 -6 29 18 8 26 -8 4 -7
6 3 6 9 1 19 -8 22 -18z m408 4 c0 -6 -10 -12 -22 -13 -19 -3 -20 -2 -8 12 15
16 31 17 30 1z m35 -32 c-10 -10 -19 5 -10 18 6 11 8 11 12 0 2 -7 1 -15 -2
-18z m-670 -45 c11 -18 13 -58 2 -58 -14 0 -38 26 -38 43 0 26 23 36 36 15z
m491 -10 c-3 -8 -6 -5 -6 6 -1 11 2 17 5 13 3 -3 4 -12 1 -19z m-22 -28 c3 -5
1 -10 -4 -10 -6 0 -11 5 -11 10 0 6 2 10 4 10 3 0 8 -4 11 -10z m-35 -106 c0
-17 -22 -14 -28 4 -2 7 3 12 12 12 9 0 16 -7 16 -16z m177 -10 c-3 -3 -12 -4
-19 -1 -8 3 -5 6 6 6 11 1 17 -2 13 -5z"/>
<path d="M6099 10752 c-14 -6 -14 -9 2 -26 19 -19 19 -19 19 7 0 15 -1 27 -2
26 -2 0 -10 -3 -19 -7z"/>
<path d="M6496 10692 c-10 -42 -3 -49 30 -31 32 17 42 38 23 50 -19 12 -32 11
-24 -1 3 -5 2 -10 -4 -10 -5 0 -11 6 -14 13 -2 6 -7 -3 -11 -21z"/>
<path d="M5883 10663 c-21 -8 -15 -22 7 -16 11 3 20 9 20 14 0 10 -8 10 -27 2z"/>
<path d="M5651 10504 c0 -11 3 -14 6 -6 3 7 2 16 -1 19 -3 4 -6 -2 -5 -13z"/>
<path d="M5615 10400 c-3 -6 1 -7 9 -4 18 7 21 14 7 14 -6 0 -13 -4 -16 -10z"/>
<path d="M5561 10034 c-36 -7 -67 -18 -70 -23 -4 -5 -20 -12 -36 -16 -67 -14
-153 -50 -197 -81 -26 -19 -58 -36 -72 -40 -35 -9 -60 -38 -44 -51 19 -15 78
-26 78 -15 0 5 8 12 18 16 9 3 24 11 33 17 37 27 65 -16 34 -51 -29 -32 -9
-48 58 -48 65 0 107 17 107 43 0 11 -13 15 -50 15 -42 0 -50 3 -50 18 0 10 6
27 14 38 13 17 18 18 46 7 44 -17 60 -8 58 33 -1 19 2 37 5 41 4 4 32 -1 63
-11 31 -10 58 -15 62 -12 3 3 1 6 -4 6 -5 0 8 9 29 20 34 19 45 20 117 11 91
-12 135 -31 146 -63 9 -29 33 -47 62 -48 29 0 49 19 58 54 6 25 -1 31 -28 27
-5 0 -8 5 -8 13 0 15 -14 22 -61 30 -27 4 -90 33 -99 45 -9 12 -129 41 -167
40 -21 0 -67 -7 -102 -15z m-211 -214 c0 -5 -2 -10 -4 -10 -3 0 -8 5 -11 10
-3 6 -1 10 4 10 6 0 11 -4 11 -10z"/>
<path d="M3085 10000 c-3 -5 1 -10 9 -10 9 0 16 5 16 10 0 6 -4 10 -9 10 -6 0
-13 -4 -16 -10z"/>
<path d="M3002 9928 c5 -15 28 -18 29 -3 0 6 -7 12 -17 13 -10 3 -15 -1 -12
-10z"/>
<path d="M5675 9860 c-3 -5 -1 -18 4 -29 12 -21 42 -19 62 5 9 11 6 16 -16 24
-33 13 -42 13 -50 0z"/>
<path d="M5787 9863 c-13 -12 -7 -33 8 -33 8 0 15 9 15 20 0 20 -11 26 -23 13z"/>
<path d="M5510 9814 c0 -12 -3 -14 -13 -6 -10 8 -13 6 -13 -8 0 -12 10 -20 30
-24 36 -7 35 -8 29 27 -6 29 -33 38 -33 11z"/>
<path d="M2890 9740 c0 -16 7 -20 32 -20 l31 0 -23 20 c-13 11 -27 20 -32 20
-4 0 -8 -9 -8 -20z"/>
<path d="M5732 9748 c-26 -26 -14 -45 33 -52 60 -9 70 -1 45 35 -22 30 -57 38
-78 17z"/>
<path d="M4348 9433 c7 -3 16 -2 19 1 4 3 -2 6 -13 5 -11 0 -14 -3 -6 -6z"/>
<path d="M5248 9393 c-24 -6 -23 -19 2 -26 15 -4 20 0 20 14 0 10 -1 18 -2 18
-2 -1 -11 -3 -20 -6z"/>
<path d="M6002 9382 c-15 -10 -6 -42 12 -42 22 0 37 22 25 37 -13 15 -19 16
-37 5z"/>
<path d="M5843 9354 c-3 -8 1 -23 10 -31 19 -19 47 -10 47 16 0 30 -46 43 -57
15z"/>
<path d="M6112 9355 c32 -38 41 -46 51 -42 34 11 2 57 -39 57 -21 0 -23 -2
-12 -15z"/>
<path d="M3936 9296 c3 -9 13 -16 22 -16 8 0 13 1 11 3 -2 1 -12 9 -22 16 -15
12 -17 12 -11 -3z"/>
<path d="M6819 9293 c-1 -5 -1 -12 0 -17 1 -5 -6 -17 -15 -27 -10 -11 -14 -22
-11 -26 4 -3 7 -1 7 5 0 21 36 13 58 -13 26 -30 34 -31 56 -6 17 18 17 20 -2
38 -50 47 -90 66 -93 46z"/>
<path d="M6600 9266 c0 -2 7 -6 15 -10 8 -3 15 -1 15 4 0 6 -7 10 -15 10 -8 0
-15 -2 -15 -4z"/>
<path d="M4123 9195 c-9 -25 4 -29 17 -6 7 15 7 21 0 21 -6 0 -13 -7 -17 -15z"/>
<path d="M6878 9034 c-8 -8 29 -44 45 -44 7 1 5 6 -5 14 -10 7 -18 18 -18 25
0 12 -13 15 -22 5z"/>
<path d="M8473 8793 c-39 -42 -39 -43 -13 -73 11 -13 18 -31 15 -40 -6 -18 28
-60 48 -60 17 0 44 -33 39 -48 -2 -7 -9 -10 -15 -6 -7 3 -1 -4 12 -16 13 -11
30 -19 38 -16 7 3 13 -1 13 -9 0 -8 -4 -15 -10 -15 -17 0 -11 -25 10 -38 11
-7 20 -20 20 -30 0 -10 5 -23 12 -30 9 -9 9 -12 0 -12 -7 0 -12 -16 -12 -40 0
-22 5 -40 11 -40 5 0 7 5 4 10 -3 6 3 10 14 10 12 0 21 -4 21 -10 0 -5 -4 -10
-10 -10 -5 0 -10 -8 -10 -19 0 -26 25 -72 35 -63 5 4 5 1 1 -6 -6 -10 -11 -10
-22 -1 -12 10 -13 9 -8 -5 8 -22 37 -20 54 4 8 11 24 20 35 20 23 1 55 22 55
38 0 6 7 15 17 20 14 8 13 11 -7 17 -30 10 -53 32 -41 39 12 8 12 78 -1 93 -5
7 -7 17 -3 23 3 5 0 19 -8 31 -11 15 -16 17 -20 7 -3 -7 -6 -3 -6 9 -1 12 4
25 9 28 13 8 13 85 -1 85 -5 0 -8 4 -4 9 3 5 -3 12 -13 15 -10 4 -25 18 -32
31 -11 20 -21 25 -54 25 -31 0 -37 3 -28 12 18 18 14 46 -8 53 -11 3 -24 4
-29 1 -5 -4 -13 3 -16 15 -6 17 -9 19 -16 8 -7 -11 -9 -10 -9 4 0 28 -32 19
-67 -20z m73 -70 c-11 -11 -17 4 -9 23 7 18 8 18 11 1 2 -10 1 -21 -2 -24z"/>
<path d="M4810 8754 c0 -8 5 -12 10 -9 6 3 10 10 10 16 0 5 -4 9 -10 9 -5 0
-10 -7 -10 -16z"/>
<path d="M7339 8734 c-6 -7 -8 -25 -5 -38 8 -33 84 -63 115 -47 21 12 21 12
-11 42 -50 45 -84 60 -99 43z"/>
<path d="M4665 8720 c4 -6 11 -8 16 -5 14 9 11 15 -7 15 -8 0 -12 -5 -9 -10z"/>
<path d="M7540 8620 c11 -20 40 -28 40 -10 0 9 -31 30 -45 30 -3 0 -1 -9 5
-20z"/>
<path d="M10497 8627 c-3 -8 -1 -20 4 -28 6 -10 9 -7 9 14 0 29 -5 35 -13 14z"/>
<path d="M8780 8543 c0 -10 4 -14 8 -8 4 6 11 13 16 18 5 4 2 7 -7 7 -10 0
-17 -8 -17 -17z"/>
<path d="M8995 7610 c-3 -5 -1 -10 4 -10 6 0 11 5 11 10 0 6 -2 10 -4 10 -3 0
-8 -4 -11 -10z"/>
<path d="M4005 7399 c-4 -6 -5 -12 -2 -15 2 -3 7 2 10 11 7 17 1 20 -8 4z"/>
<path d="M3972 7388 c-26 -26 -6 -50 25 -30 8 5 8 11 -1 24 -10 13 -15 15 -24
6z"/>
<path d="M3780 7300 c0 -43 2 -45 31 -30 21 12 25 40 7 58 -24 24 -38 13 -38
-28z"/>
<path d="M3482 7321 c-18 -11 -11 -55 8 -58 30 -6 41 11 27 40 -13 29 -16 31
-35 18z"/>
<path d="M3547 7277 c-10 -16 -12 -28 -5 -40 14 -26 45 -21 52 9 4 15 6 27 4
28 -2 1 -10 7 -19 14 -14 10 -19 8 -32 -11z"/>
<path d="M8207 7283 c-13 -13 -7 -32 8 -27 8 4 15 12 15 20 0 15 -12 19 -23 7z"/>
<path d="M8406 7237 c-4 -19 -13 -40 -21 -47 -10 -8 -13 -21 -9 -39 8 -30 77
-137 108 -166 12 -11 29 -32 39 -47 10 -16 22 -28 27 -28 17 0 11 26 -11 54
-16 20 -20 36 -16 61 4 24 1 35 -9 39 -8 3 -14 10 -14 17 0 6 7 8 16 5 22 -8
41 14 36 41 -2 13 -17 37 -33 52 -15 16 -31 40 -35 55 -3 14 -11 26 -18 26 -6
0 -21 3 -32 6 -18 5 -22 0 -28 -29z"/>
<path d="M118 7210 c11 -30 28 -36 36 -13 4 9 4 14 0 10 -4 -4 -16 1 -26 10
-18 16 -18 16 -10 -7z"/>
<path d="M3670 7209 c0 -5 5 -7 10 -4 6 3 10 8 10 11 0 2 -4 4 -10 4 -5 0 -10
-5 -10 -11z"/>
<path d="M3566 7167 c-16 -12 -16 -13 3 -14 12 -1 21 4 21 13 0 17 -2 17 -24
1z"/>
<path d="M231 7134 c0 -11 3 -14 6 -6 3 7 2 16 -1 19 -3 4 -6 -2 -5 -13z"/>
<path d="M3633 7072 c-24 -4 -32 -35 -13 -47 17 -10 11 -37 -16 -77 -15 -21
-25 -41 -22 -44 11 -10 65 46 91 94 l27 50 -23 14 c-12 7 -32 12 -44 10z m4
-34 c-3 -8 -6 -5 -6 6 -1 11 2 17 5 13 3 -3 4 -12 1 -19z"/>
<path d="M8541 7044 c0 -11 3 -14 6 -6 3 7 2 16 -1 19 -3 4 -6 -2 -5 -13z"/>
<path d="M3440 6965 c-10 -13 -9 -19 5 -35 18 -20 18 -20 37 -1 10 11 15 27
12 35 -8 20 -38 21 -54 1z"/>
<path d="M3348 6853 c-32 -20 -39 -33 -31 -62 8 -30 23 -26 67 14 32 29 36 37
26 50 -16 19 -28 19 -62 -2z"/>
<path d="M3447 6773 c-10 -3 -22 -16 -27 -29 -8 -19 -17 -24 -45 -24 -32 0
-35 -2 -35 -29 0 -22 4 -28 18 -26 9 2 22 4 28 4 7 1 14 10 17 22 4 14 11 19
24 15 24 -7 50 14 58 47 7 28 2 30 -38 20z"/>
</g>
</svg>
